<?xml version="1.0" encoding="utf-8"?>
<!DOCTYPE svg PUBLIC "-//W3C//DTD SVG 1.1//EN" "http://www.w3.org/Graphics/SVG/1.1/DTD/svg11.dtd">
<svg xmlns="http://www.w3.org/2000/svg" xmlns:xlink="http://www.w3.org/1999/xlink" version="1.1" baseProfile="full" width="39.0104" height="57.2188" viewBox="0 0 39.01 57.22" enable-background="new 0 0 39.01 57.22" xml:space="preserve">
	<path fill="#FFFFFF" fill-opacity="1" stroke-linejoin="round" d="M 19.5313,0L 19.5313,0C 25.4798,0 30.3021,4.82227 30.3021,10.7708L 30.3021,27.2291C 30.3021,33.1777 25.4798,38 19.5313,38L 19.5313,38C 13.5827,38 8.76044,33.1777 8.76044,27.2291L 8.76044,10.7708C 8.76044,4.82227 13.5827,0 19.5313,0 Z "/>
	<path fill="#FFFFFF" fill-opacity="1" stroke-linejoin="round" d="M 32.0521,29.9896L 39.0104,30.0208C 39.0104,30.0209 38.4271,44.7396 23.1146,48.2292L 23.0729,57.1979L 15.0313,57.2188L 15.0625,48.2813C 15.0625,48.2813 -0.375,44.6823 0,30.1823L 7,30.1875C 7,30.1875 6.77084,41 19.1458,41.25C 19.1458,41.25 29.3646,42.5208 32.0208,30.6875"/>
</svg>
